<svg width="100" height="100" viewBox="0 0 100 100" fill="none" xmlns="http://www.w3.org/2000/svg">
<path d="M88.3749 66.2084C85.7242 72.477 81.5782 78.0009 76.2994 82.2971C71.0206 86.5933 64.7698 89.531 58.0934 90.8533C51.417 92.1756 44.5183 91.8423 38.0005 89.8825C31.4827 87.9227 25.5442 84.3961 20.7041 79.6111C15.8641 74.826 12.2699 68.9282 10.2359 62.4331C8.20179 55.9381 7.78973 49.0437 9.03571 42.3527C10.2817 35.6616 13.1478 29.3776 17.3834 24.0501C21.619 18.7227 27.0952 14.5138 33.3332 11.7917" stroke="#3D917C" stroke-width="10" stroke-linecap="round" stroke-linejoin="round"/>
<path d="M91.6667 50C91.6667 44.5282 90.5889 39.1101 88.495 34.0548C86.401 28.9996 83.3319 24.4063 79.4628 20.5372C75.5937 16.6681 71.0004 13.5989 65.9451 11.505C60.8899 9.41105 55.4717 8.33331 50 8.33331V50H91.6667Z" stroke="#3D917C" stroke-width="10" stroke-linecap="round" stroke-linejoin="round"/>
</svg>
